<?xml version="1.0" encoding="UTF-8"?><svg id="Laag_1" xmlns="http://www.w3.org/2000/svg" viewBox="0 0 120.53 127.74"><defs><style>.cls-1,.cls-2{fill:#f5b2b4;}.cls-3{fill:none;stroke:#000;stroke-linecap:round;stroke-width:2px;}.cls-3,.cls-2,.cls-4{stroke-miterlimit:10;}.cls-5{fill:#e5f1eb;}.cls-2{stroke:#f5b2b4;}.cls-6,.cls-4{fill:#fff;}.cls-4{stroke:#fff;}</style></defs><circle class="cls-5" cx="60.16" cy="79.9" r="47.84"/><path class="cls-4" d="M37.34,117.13s22.82,18.65,47.84,1.76c5.04-5.62,11.17-35.44,13.95-35.38,2.78.06-1.82-10.68-10.89-14.83-1.38-7.22-.93-14.97-15.9-10.17-7.29-2.58-11.59-6.26-17.73-4.73s-6.72,6.45-10.42,7.37-6.86-4-11.89,4.14c-5.02,8.14-2.6,23.3-2.27,28.62s5.83,22.12,6.58,22.67l.75.55Z"/><path class="cls-3" d="M34.16,113.61s-16.1-55.63,8.37-52.57c.89.11,1.81.04,2.58-.42,4.92-2.9,10.21-12.82,23.99-2.9.95.68,2.15.95,3.31.77,7.39-1.13,13.32-5.23,14.97,8.29.12.96.72,1.79,1.56,2.28,8.91,5.21,11.14,9.76,10.19,14.44-1.01,4.92-10.07,27.07-9.07,33.62"/><path class="cls-2" d="M42.31,67.6c-2.68-.73-5.89,1.44-6.76,4.3-1.05,3.47,1.41,7.67,4.61,7.99,2.26.22,4.34-1.56,5.22-3.38,1.55-3.19.16-8.02-3.07-8.91Z"/><path class="cls-2" d="M57.06,59.92c-2.24.46-4.46,3.26-3.99,6.14.48,2.96,3.5,4.33,5.53,4.61,2.08.28,5.03-.33,5.84-2.15,1.35-3.06-3.4-9.42-7.37-8.6Z"/><path class="cls-2" d="M79.17,64.53c-2.11-.62-4.92.99-6.14,3.38-1.27,2.48-.83,5.85,1.54,7.68,2.04,1.58,5.08,1.68,6.76.31,3.14-2.57,1.49-10.3-2.15-11.36Z"/><path class="cls-2" d="M90.23,79.88c-1.25-.59-4.25,1.59-4.91,4.61-.79,3.57,1.96,6.97,3.38,6.76,2.26-.34,3.69-10.34,1.54-11.36Z"/><path class="cls-1" d="M48.15,82.95c-7,4.08-8.28,5.3-9.21,7.06-1.47,2.77-2.55,7.7-.31,11.06,3.54,5.3,11.54.97,26.11,5.22,9.52,2.78,12.09,6.37,15.05,4.61,4.8-2.86,4.19-15.99-1.84-24.57-.39-.55-7.74-10.72-17.2-9.83-1.81.17-5.41,2.26-12.59,6.45Z"/><path class="cls-6" d="M6.14,26.4c-.34,0-.73-.19-.93-.46-.23-.31-.35-.71-.47-1.08-.55-1.64-3.28-11.53-3.7-13.22-.2-.8-.87-2.48-.2-3.09.3-.27.77-.39,1.17-.49.37-.09.81-.2,1.17-.06.19.08.35.24.43.43.14.32.2.64.3.98.55-.72,1.24-1.39,2.06-1.84.95-.52,2.15-.87,3.23-.84.79.02,1.6.23,2.25.59.97.49,1.76,1.24,2.31,2.08,1.66,2.52,2.45,5.6,2.44,8.6-.02.75-.07,1.5-.28,2.21-.22.78-.6,1.55-1.04,2.24-.58.91-1.5,1.66-2.51,2.02-1.34.48-2.89.43-4.27.06.07.37.12.85-.09,1.14-.28.39-1.4.73-1.89.74ZM12.67,23.21c1.21-.79,2.05-2.24,2.34-3.64.1-.59.1-1.18.1-1.77,0-1.85-.4-3.75-1.07-5.45-.47-1.16-1.06-2.35-1.98-3.26-.7-.69-1.69-1.27-2.76-1.35-1.13-.08-2.4.33-3.32.99-.74.53-1.34,1.31-1.78,2.11.11.49.81,3.49.92,4,.66,2.84,1.44,7.19,2.59,8.47.41.45,2.01.54,3.06.48.65-.04,1.32-.21,1.89-.58Z"/><path class="cls-6" d="M21.23,21.76c-.91-.39-1.65-1.19-2.18-2.05-1.13-1.88-1.54-4.33-.98-6.48.3-1.16.92-2.36,1.91-3.16,1.09-.89,2.8-1.24,4.16-.82.64.19,1.22.58,1.7,1,.9.84,1.56,1.95,1.93,3.08.47,1.44.55,3.03.25,4.52-.19.94-.55,1.89-1.17,2.65-.41.5-.93.92-1.52,1.18-1.24.55-2.88.62-4.1.09ZM25.65,20.24c.46-.35.78-.87,1.03-1.4.42-.91.54-1.98.5-2.95-.05-1.19-.37-2.4-.92-3.44-.65-1.23-2.14-2.68-3.57-2.24-1.37.42-1.94,2.67-1.96,3.98-.03,1.7.36,3.47,1.2,4.93.31.5.74.95,1.26,1.26.35.21.83.32,1.23.31.43-.02.88-.18,1.22-.45Z"/><path class="cls-6" d="M31.41,20.55c-.22-.07-.42-.22-.55-.4-.25-.32-.34-.71-.42-1.1-.52-2.42-.76-4.91-.98-7.33-.05-.5-.41-2.92-.35-3.43.02-.21.18-.46.38-.59.45-.29,1.57-.51,2.06-.32.52.2.79.83.89,1.37.18.98.21,1.99.29,2.99.25-.94.55-1.92,1.06-2.76.49-.79,1.17-1.53,2-2.03.61-.37,1.35-.62,2.05-.61.65.01,1.3.19,1.82.54.78.48,1.36,1.28,1.68,2.12.34.89.42,1.9.53,2.86.21,1.85.36,3.73.28,5.62,0,.38-.03.76-.13,1.14-.24.95-1.43,1.22-2.32.76-.24-.13-.44-.31-.57-.52-.23-.45-.25-1.02-.29-1.5-.05-.72,0-1.48-.03-2.23-.06-1.5-.1-3.01-.32-4.49-.08-.54-.21-1.09-.41-1.59-.12-.3-.33-.64-.58-.87-.24-.21-.61-.36-.93-.32-.43.05-.83.3-1.12.58-.6.63-1.01,1.43-1.29,2.22-.56,1.68-.85,3.46-.96,5.22,0,.02,0,0,0,.05.17,1.06.41,2.11.43,3.19-.01.3-.07.64-.24.89-.36.55-1.36.72-2,.54Z"/><path class="cls-6" d="M46.84,18.68c-1.23-.58-2.27-1.71-2.81-2.95-.67-1.53-.79-3.35-.3-4.97.7-2.29,3.07-4.16,5.69-4.46.77-.09,1.59-.03,2.33.22,3.08,1.03,3.97,4.57,2.02,6.95-.67.85-1.84,1.37-2.94,1.52-1.13.15-2.31.17-3.44-.03.27.93.86,1.82,1.64,2.43.51.4,1.17.65,1.82.68.68.03,1.41-.21,2.01-.56.17-.11.38-.19.55-.17.41.09.42.56.13.82-.25.22-1.37.7-1.69.79-1.6.42-3.51.43-5.01-.27ZM50.71,14.1c.74-.14,1.49-.42,2.01-.94,1.33-1.23.96-3.59-.16-5-.45-.53-1.17-1.05-1.92-1.07-.64-.02-1.31.39-1.75.84-.48.49-.87,1.08-1.15,1.69-.64,1.34-.79,2.9-.59,4.34,1.16.3,2.42.34,3.57.13Z"/><path class="cls-6" d="M59.03,18.23c-1.19-.65-2.16-1.85-2.62-3.12-.57-1.56-.58-3.4.01-4.97.84-2.25,3.32-3.97,5.95-4.1.78-.04,1.59.07,2.31.36,3.01,1.21,3.68,4.8,1.59,7.07-.73.8-1.92,1.25-3.03,1.33-1.14.08-2.32.03-3.43-.25.21.95.75,1.87,1.48,2.53.48.43,1.13.72,1.77.79.67.07,1.42-.13,2.04-.44.18-.1.39-.17.56-.14.4.11.38.59.08.83-.26.21-1.41.62-1.74.68-1.62.32-3.53.21-4.98-.58ZM63.17,13.9c.75-.09,1.51-.32,2.07-.81,1.41-1.14,1.18-3.52.15-5-.41-.56-1.1-1.12-1.85-1.19-.64-.06-1.33.31-1.8.73-.51.46-.94,1.02-1.26,1.62-.72,1.3-.97,2.85-.86,4.3,1.14.37,2.39.49,3.55.35Z"/><path class="cls-6" d="M69.07,18.35c-.29-.36-.32-.89-.32-1.36-.04-2.47.2-4.96.45-7.39.05-.5.15-2.95.31-3.44.06-.2.26-.41.48-.5.5-.2,1.63-.19,2.08.08.26.17.43.45.52.73.17.71.07,1.46-.02,2.18.51-.87,1.26-1.69,2.2-2.11.93-.42,2.12-.63,3.11-.31.57.19.51,1.05-.09,1.1-.11.02-.21-.02-.32-.05-.77-.16-1.64-.04-2.31.3-.83.41-1.48,1.23-1.87,2.05-.55,1.16-.86,2.46-1.14,3.66-.12.51-.15,3.45-.21,3.97-.04.37-.12.75-.32,1.06-.17.27-.54.5-.87.55-.58.1-1.32-.07-1.67-.51Z"/><path class="cls-6" d="M85.36,20.03c-.19-.13-.34-.32-.42-.53-.16-.37-.13-.77-.11-1.17.15-2.47.6-4.93,1.04-7.33.09-.49.39-2.92.59-3.4.08-.19.29-.39.52-.46.51-.16,1.65-.06,2.07.25.44.33.54,1.01.49,1.56-.09,1-.33,1.97-.53,2.96.49-.84,1.05-1.7,1.77-2.37.68-.63,1.54-1.16,2.48-1.42.69-.19,1.47-.23,2.15-.03.62.19,1.2.54,1.61,1.01.62.67.97,1.6,1.05,2.5.09.95-.11,1.94-.27,2.9-.3,1.84-.66,3.69-1.26,5.49-.09.36-.24.72-.43,1.06-.49.85-1.71.78-2.45.1-.2-.19-.34-.41-.41-.65-.1-.5.03-1.05.13-1.52.14-.71.4-1.43.57-2.16.35-1.46.72-2.93.91-4.41.07-.54.09-1.11.04-1.64-.03-.32-.14-.71-.32-.99-.17-.27-.49-.51-.81-.56-.43-.07-.88.06-1.24.26-.75.44-1.36,1.11-1.84,1.79-1,1.47-1.76,3.1-2.33,4.76,0,.02,0,0,0,.05-.12,1.07-.17,2.15-.45,3.19-.09.29-.24.6-.47.79-.5.44-1.5.33-2.07-.02Z"/><path class="cls-6" d="M106.75,24.02c-.17-.15-.31-.33-.37-.55-.12-.39-.04-.81.02-1.18.34-1.99.86-3.96,1.43-5.9-.92,1.68-1.76,3.44-3.04,4.88-1.42,1.6-3.93,2.46-5.21.72-.45-.63-.63-1.43-.69-2.18-.1-1.22.03-2.47.3-3.69.39-1.78,1.09-3.53,1.76-5.26.12-.33.37-.69.72-.85.45-.2,1.05-.18,1.52-.02.33.11.7.33.87.62.14.24.18.58.15.85-.04.42-.18.85-.36,1.28-.7,1.59-1.4,3.22-1.88,4.89-.18.62-.33,1.3-.38,1.94-.07.99.24,2.35,1.2,2,.2-.06.35-.15.48-.28.41-.32.76-.71,1.06-1.09.39-.5.73-1.01,1.04-1.53.56-.95,3.36-5.61,3.71-6.65.1-.28.35-.53.65-.61.54-.15,1.66.1,2.06.48.41.39.43,1.06.33,1.58-.21,1.03-.57,2.03-.88,3.02-.6,1.89-1.11,3.87-1.52,5.75-.09.43-.23.91-.39,1.32-.11.27-.27.55-.53.74-.54.38-1.54.16-2.06-.28Z"/><path class="cls-6" d="M112.82,25.7c-1.21-.67-1.41-2.35-.22-3.09.23-.15.49-.3.75-.39.32-.11.74-.14,1.1-.06.65.15,1.38.68,1.54,1.32.14.56-.09,1.15-.42,1.62-.57.85-1.84,1.11-2.75.6ZM113.76,20.13c-.15-.51.05-1.08.14-1.62.36-2.23.81-4.46,1.27-6.65.18-.85.63-3.31,1.37-3.8.72-.48,2.13-.16,2.84.4,1.05.83.07,2.9-.38,4.03-.25.64-1.66,4.62-1.89,5.28-.16.47-.77,2.4-1.1,2.78-.2.23-.47.41-.76.46-.62.06-1.33-.3-1.5-.88Z"/></svg>