<?xml version="1.0" encoding="UTF-8"?><svg id="Laag_1" xmlns="http://www.w3.org/2000/svg" viewBox="0 0 320.97 380.35"><defs><style>.cls-1{fill:#1d1d1b;font-family:FashionFetishHeavy, 'Fashion Fetish Heavy';font-size:36.72px;}.cls-2{fill:#eea3c8;}.cls-3{fill:#fff;}</style></defs><path d="M251.57,202.12c-4.5-.63-8.72-1.2-12.93-1.83-5.78-.86-8.27-5.87-5.11-10.86,2.35-3.71,5.2-7.12,7.89-10.61,9.02-11.7,18.04-23.39,27.13-35.04,1.05-1.35,2.33-2.71,3.8-3.52,3.55-1.96,7.06-.92,9.67,2.73,4.79,6.7,8.66,13.88,11.18,21.75,4.9,15.29,5.29,30.62.13,45.93-.59,1.74-1.55,3.49-2.78,4.83-1.89,2.07-4.37,2.97-7.24,1.99-1.58-.54-3.18-1.02-4.74-1.61-1.5-.56-2.96-1.23-4.67-1.95-.76,1.78-1.49,3.55-2.26,5.3-13.18,29.81-34.78,51.02-64.9,63.5-9.51,3.94-18.95,8-27.38,14.02-6.03,4.31-11.34,9.32-15.16,15.76-.07.12-.14.24-.22.36-3.29,4.98-8,4.82-11.18-.22-1.63-2.59-3.39-5.16-5.46-7.41-8.24-8.93-18.51-14.81-29.68-19.24-11.86-4.71-23.47-9.89-33.67-17.71-18.42-14.12-32.18-31.78-40.28-53.67-.09-.25-.28-.47-.39-.64-2.92,1.12-5.73,2.36-8.64,3.28-4.7,1.48-8.61-.3-10.22-4.98-1.42-4.14-2.58-8.43-3.27-12.75-3.1-19.47,1.33-37.34,11.99-53.78.87-1.35,1.82-2.68,2.92-3.84,3.45-3.65,8.36-3.47,11.42.48,11.67,15.05,23.31,30.12,34.91,45.22,3.24,4.22,3.29,7.56.44,10.58-1.9,2.02-4.49,2.08-6.96,2.44-1.73.25-3.48.39-5.21.63-1.66.23-3.3.52-5.05.8.03.32-.02.62.09.83,9.53,18.88,23.06,33.65,43.21,41.38,4.01,1.54,8.3,2.51,12.55,3.25,8.45,1.46,15.64-4.77,15.65-13.31.01-14.92-.01-29.85-.02-44.77,0-.69,0-1.38,0-1.84-5.37-1.44-10.58-2.54-15.59-4.24-14.96-5.09-27.54-13.45-35.44-27.56-6.37-11.38-9.1-23.43-4.9-36.28.73-2.23,2.14-4.22,3.1-6.39.36-.81.65-1.9.41-2.69-4.3-14.41-5.22-29.16-4.24-44.06.49-7.43,2.1-14.66,5.4-21.41.79-1.62,1.7-3.25,2.85-4.62,2.83-3.35,6.79-4.06,10.27-1.41,3.83,2.91,7.49,6.12,10.8,9.61,6.96,7.32,13.27,15.19,18.15,24.09.82,1.49,1.75,1.95,3.37,1.52,1.88-.49,3.81-.8,5.84-1.21,0-2.27.11-4.45-.06-6.6-.05-.68-.76-1.42-1.35-1.92-6.26-5.31-10.78-11.73-12.53-19.85-4.62-21.47,9.71-39.22,26.83-43.44,23.76-5.85,41.53,11.77,44.28,29.2,2.08,13.21-1.59,24.37-11.87,33.09-1.67,1.42-2.46,2.82-2.2,4.98.17,1.38.03,2.79.03,4.48,2.44.44,4.8,1,7.19,1.21.55.05,1.38-.98,1.78-1.69,4.77-8.47,10.67-16.11,17.42-23.06,3.36-3.45,6.96-6.71,10.75-9.68,4.86-3.81,9.55-2.66,12.58,2.71,3.96,7,5.98,14.62,6.67,22.56,1.34,15.26.2,30.33-4.19,45.07-.42,1.41-.14,2.41.66,3.64,4.21,6.51,5.44,13.82,4.56,21.34-2.56,21.86-15.42,36.11-34.55,45.41-3.56,1.73-7.36,3.06-11.15,4.23-3.73,1.16-7.59,1.89-11.67,2.87,0,.7,0,1.6,0,2.49,0,14.29.25,28.59-.12,42.87-.25,9.9,6.92,16.5,17.88,14.38,20.11-3.89,34.89-15.43,46.2-31.94,2.6-3.79,4.63-7.97,6.92-11.97.16-.28.2-.63.37-1.21ZM222.37,47.98c-6.52,4.56-11.7,10.33-16.43,16.49-4,5.22-7.8,10.59-11.65,15.93-2.33,3.23-5.14,4.33-9.25,3.58-7.55-1.36-15.19-2.49-22.84-3.03-9.39-.66-18.85.1-27.91,2.56-6.37,1.73-9.81-.54-13.23-5.53-4.77-6.98-10.04-13.64-15.48-20.11-3.1-3.69-6.97-6.73-10.9-10.45-1.16,2.89-2.41,5.07-2.89,7.42-.99,4.78-1.83,9.61-2.28,14.47-1.21,13.18-.33,26.16,4.57,38.63.81,2.05.65,3.84-.53,5.75-7.17,11.55-6.85,23.39-.65,35.1,6.09,11.51,15.82,19.13,27.81,23.77,21.48,8.31,43.47,9.11,65.73,3.59,13.39-3.32,25.02-9.62,33.62-20.75,9.24-11.96,12.18-27.63,3.64-41.51-1.27-2.07-1.36-3.84-.55-6.06,5.69-15.68,5.87-31.8,3.43-48.06-.62-4.12-1.65-8.22-4.2-11.81ZM49.63,202.49c.29,1.08.5,1.95.75,2.8,6.31,21.29,18.65,38.46,35.7,52.45,10.2,8.37,21.93,13.85,34.06,18.72,12.64,5.07,24.42,11.57,33.68,21.87,1.67,1.86,3.23,3.81,4.89,5.78.61-.9,1.1-1.75,1.7-2.52,5.6-7.18,12.5-12.93,20.52-17.08,8.93-4.63,18.22-8.57,27.32-12.87,25.56-12.06,44.21-30.84,55.18-57.02,1.63-3.89,2.84-7.96,4.31-12.15-1.17-.12-1.86-.2-2.55-.27-3.58-.34-3.5-.3-4.89,2.99-11.22,26.48-30.18,44.14-58.45,51.11-4.67,1.15-9.36,1.47-14.12.27-11.63-2.92-16.78-13.37-16.88-21.99-.17-14.43-.05-28.86-.05-43.29,0-.81,0-1.62,0-2.2h-24.16c0,1,0,1.96,0,2.93-.06,13.59-.12,27.18-.17,40.77-.02,4.62-.83,9.05-3.15,13.1-5.35,9.32-15.15,13.29-26.77,10.88-15.1-3.14-27.93-10.51-38.81-21.28-9.29-9.19-16.83-19.62-21.53-31.95-.24-.64-1.05-1.46-1.63-1.48-1.57-.07-3.15.24-4.95.42ZM170.79,71.39c0-2.9.1-5.77-.03-8.62-.08-1.86.4-3.05,2.13-4.04,3.83-2.18,6.99-5.21,9.14-9.07,5.51-9.87,4.66-19.51-1.74-28.62-5.68-8.1-17.2-12.99-27.62-10.42-10.28,2.53-18.94,11.48-20.66,21.74-1.77,10.49,2.89,20.59,12.38,26.41,1.7,1.04,2.26,2.18,2.15,4.04-.14,2.44-.09,4.9-.09,7.35,0,.52.12,1.04.15,1.23h24.19ZM73.81,191.54c-10.85-14.06-21.42-27.75-32.22-41.75-1.24,1.84-2.39,3.32-3.32,4.93-6.95,11.98-9.67,24.96-8.72,38.69.29,4.16,1.23,8.28,2.06,12.38.49,2.43.79,2.48,3.14,1.51,1.42-.58,2.76-1.39,4.21-1.87,1.62-.54,2.05-1.23,1.64-3.05-1.67-7.47,2.05-9.33,7.43-9.3,6.43.03,12.86-.48,19.29-.83,2.08-.11,4.14-.45,6.49-.72ZM275.54,149.87c-10.75,13.85-21.48,27.68-32.52,41.9,2.83.22,5.17.47,7.51.57,7.07.32,14.14.56,21.2.88,3.09.14,5.18,2.3,5.21,5.46.01,1.45-.44,2.89-.57,4.35-.05.53.06,1.44.38,1.59,2.56,1.22,5.18,2.29,7.76,3.4,6.99-14.69,1.92-47.2-8.97-58.16Z"/><path class="cls-3" d="M222.37,47.98c2.55,3.59,3.59,7.69,4.2,11.81,2.44,16.26,2.25,32.38-3.43,48.06-.81,2.22-.72,3.99.55,6.06,8.54,13.88,5.6,29.55-3.64,41.51-8.6,11.13-20.23,17.43-33.62,20.75-22.26,5.51-44.25,4.72-65.73-3.59-11.99-4.64-21.72-12.26-27.81-23.77-6.2-11.71-6.52-23.55.65-35.1,1.18-1.91,1.34-3.7.53-5.75-4.9-12.47-5.77-25.45-4.57-38.63.45-4.85,1.29-9.69,2.28-14.47.49-2.34,1.74-4.53,2.89-7.42,3.93,3.72,7.8,6.76,10.9,10.45,5.44,6.47,10.71,13.14,15.48,20.11,3.41,4.99,6.86,7.26,13.23,5.53,9.07-2.47,18.52-3.23,27.91-2.56,7.65.54,15.29,1.66,22.84,3.03,4.11.74,6.93-.35,9.25-3.58,3.85-5.34,7.65-10.71,11.65-15.93,4.73-6.17,9.91-11.93,16.43-16.49ZM158.14,146.67c2.45,1.65,4.48,3.44,6.83,4.5,4.91,2.22,10.56.16,12.84-4.31.85-1.67,1.18-3.32-.21-4.87-1.34-1.5-2.93-1.08-4.43-.37-1.93.92-3.77.9-5.61-.16-2.59-1.48-4.12-3.77-4.72-6.62-.13-.61.41-1.5.88-2.06.92-1.12,2.21-1.98,2.99-3.18,1.36-2.09.49-4.36-1.96-4.53-4.17-.29-8.39-.27-12.57.02-2.28.16-3.16,2.51-1.88,4.45.8,1.21,1.98,2.16,2.86,3.32.45.59.9,1.42.85,2.11-.32,5.07-5.59,8.27-10.28,6.56-1.18-.43-2.95-.27-4.04.35-1.48.83-1.43,2.54-.86,4.14,1.1,3.09,4.47,5.67,7.77,5.9,4.97.34,8.75-1.87,11.53-5.26ZM116.88,118.44c-.17,5.26,3.88,9.8,8.91,9.98,5.95.22,10.57-3.84,10.7-9.4.13-5.43-4.17-10.12-9.48-10.33-5.51-.22-9.94,4.05-10.13,9.75ZM180.84,118.66c-.03,5.66,3.94,9.77,9.45,9.8,5.54.03,9.92-4.11,9.96-9.4.04-5.91-3.98-10.29-9.49-10.36-5.49-.06-9.9,4.36-9.93,9.96Z"/><path class="cls-3" d="M49.63,202.49c1.8-.18,3.38-.49,4.95-.42.58.03,1.39.85,1.63,1.48,4.7,12.32,12.24,22.76,21.53,31.95,10.88,10.77,23.71,18.14,38.81,21.28,11.62,2.41,21.42-1.55,26.77-10.88,2.32-4.05,3.14-8.48,3.15-13.1.05-13.59.11-27.18.17-40.77,0-.96,0-1.93,0-2.93h24.16c0,.58,0,1.39,0,2.2,0,14.43-.12,28.86.05,43.29.1,8.62,5.25,19.07,16.88,21.99,4.76,1.2,9.46.88,14.12-.27,28.27-6.97,47.23-24.63,58.45-51.11,1.39-3.29,1.31-3.33,4.89-2.99.69.06,1.37.15,2.55.27-1.47,4.19-2.68,8.26-4.31,12.15-10.96,26.17-29.62,44.95-55.18,57.02-9.11,4.3-18.39,8.24-27.32,12.87-8.01,4.15-14.92,9.9-20.52,17.08-.6.77-1.1,1.61-1.7,2.52-1.66-1.97-3.22-3.92-4.89-5.78-9.27-10.3-21.05-16.8-33.68-21.87-12.13-4.87-23.86-10.35-34.06-18.72-17.05-13.99-29.39-31.16-35.7-52.45-.25-.85-.46-1.72-.75-2.8Z"/><path class="cls-3" d="M170.79,71.39h-24.19c-.02-.19-.15-.71-.15-1.23,0-2.45-.05-4.91.09-7.35.1-1.86-.45-2.99-2.15-4.04-9.5-5.82-14.15-15.92-12.38-26.41,1.73-10.26,10.38-19.21,20.66-21.74,10.42-2.57,21.94,2.32,27.62,10.42,6.4,9.12,7.25,18.75,1.74,28.62-2.15,3.86-5.32,6.89-9.14,9.07-1.74.99-2.22,2.18-2.13,4.04.13,2.85.03,5.72.03,8.62ZM176.73,37.62c.02-9.17-8.08-17.19-17.38-17.23-10.47-.05-18.74,7.63-18.76,17.41-.03,9.21,8.44,17.46,17.94,17.48,9.89.02,18.19-8.03,18.21-17.66Z"/><path class="cls-3" d="M73.81,191.54c-2.35.27-4.42.6-6.49.72-6.43.35-12.86.87-19.29.83-5.38-.03-9.1,1.83-7.43,9.3.41,1.82-.02,2.51-1.64,3.05-1.45.48-2.79,1.29-4.21,1.87-2.36.97-2.65.92-3.14-1.51-.83-4.1-1.77-8.22-2.06-12.38-.95-13.73,1.77-26.71,8.72-38.69.93-1.61,2.08-3.1,3.32-4.93,10.8,14,21.37,27.69,32.22,41.75Z"/><path class="cls-3" d="M275.54,149.87c10.89,10.95,15.96,43.46,8.97,58.16-2.58-1.11-5.2-2.19-7.76-3.4-.32-.15-.42-1.06-.38-1.59.13-1.46.59-2.9.57-4.35-.02-3.16-2.12-5.32-5.21-5.46-7.07-.33-14.14-.56-21.2-.88-2.34-.11-4.67-.35-7.51-.57,11.04-14.23,21.77-28.05,32.52-41.9Z"/><path d="M158.14,146.67c-2.78,3.39-6.57,5.6-11.53,5.26-3.31-.23-6.68-2.81-7.77-5.9-.57-1.6-.62-3.31.86-4.14,1.09-.61,2.86-.78,4.04-.35,4.69,1.71,9.96-1.49,10.28-6.56.04-.69-.4-1.52-.85-2.11-.88-1.16-2.07-2.11-2.86-3.32-1.28-1.95-.41-4.3,1.88-4.45,4.17-.29,8.39-.3,12.57-.02,2.44.17,3.32,2.44,1.96,4.53-.78,1.2-2.06,2.06-2.99,3.18-.47.57-1.01,1.45-.88,2.06.6,2.85,2.13,5.14,4.72,6.62,1.84,1.06,3.68,1.08,5.61.16,1.5-.71,3.08-1.13,4.43.37,1.39,1.55,1.06,3.21.21,4.87-2.28,4.47-7.93,6.53-12.84,4.31-2.35-1.06-4.37-2.85-6.83-4.5Z"/><path d="M116.88,118.44c.19-5.7,4.62-9.96,10.13-9.75,5.31.21,9.61,4.9,9.48,10.33-.13,5.56-4.75,9.61-10.7,9.4-5.03-.18-9.08-4.72-8.91-9.98Z"/><path d="M180.84,118.66c.03-5.6,4.43-10.02,9.93-9.96,5.51.07,9.53,4.45,9.49,10.36-.04,5.29-4.43,9.43-9.96,9.4-5.51-.03-9.48-4.14-9.45-9.8Z"/><path d="M176.73,37.62c-.02,9.63-8.32,17.67-18.21,17.66-9.5-.02-17.96-8.27-17.94-17.48.03-9.78,8.3-17.46,18.76-17.41,9.31.04,17.4,8.07,17.38,17.23ZM150.52,37.62c-.08,4.17,3.73,7.89,8.13,7.96,4.28.06,8.18-3.65,8.26-7.87.08-3.92-3.71-7.67-7.86-7.78-4.6-.12-8.45,3.35-8.53,7.69Z"/><path class="cls-3" d="M150.52,37.62c.08-4.35,3.92-7.81,8.53-7.69,4.16.11,7.94,3.85,7.86,7.78-.08,4.22-3.98,7.93-8.26,7.87-4.4-.06-8.2-3.79-8.13-7.96Z"/><text class="cls-1" transform="translate(26.15 313.02) rotate(37.62)"><tspan x="0" y="0">C</tspan></text><text class="cls-1" transform="translate(50.96 332.11) rotate(30.24)"><tspan x="0" y="0">a</tspan></text><text class="cls-1" transform="translate(82.04 349.8) rotate(20.3)"><tspan x="0" y="0">p</tspan></text><text class="cls-1" transform="translate(115.71 361.24) rotate(10.89)"><tspan x="0" y="0">t</tspan></text><text class="cls-1" transform="translate(135.4 365.35) rotate(1.1)"><tspan x="0" y="0">a</tspan></text><text class="cls-1" transform="translate(169.7 365.37) rotate(-3.98)"><tspan x="0" y="0">i</tspan></text><text class="cls-1" transform="translate(187.64 364.41) rotate(-9.76)"><tspan x="0" y="0">n</tspan></text><text class="cls-1" transform="translate(222.92 357.53) rotate(-17.45)"><tspan x="0" y="0"> </tspan></text><text class="cls-1" transform="translate(242.19 351.76) rotate(-27.08)"><tspan x="0" y="0">C</tspan></text><text class="cls-1" transform="translate(271.57 336.42) rotate(-40.25)"><tspan x="0" y="0">a</tspan></text><text class="cls-1" transform="translate(298.3 312.05) rotate(-51.7)"><tspan x="0" y="0">t</tspan></text><circle class="cls-2" cx="118.11" cy="141.85" r="7.95"/><circle class="cls-2" cx="200.25" cy="141.85" r="7.95"/></svg>