<?xml version="1.0" encoding="UTF-8"?><svg id="Laag_1" xmlns="http://www.w3.org/2000/svg" viewBox="0 0 164.15 128.8"><defs><style>.cls-1{fill:none;stroke:#000;stroke-linecap:round;}.cls-1,.cls-2{stroke-width:2px;}.cls-1,.cls-2,.cls-3{stroke-miterlimit:10;}.cls-4{fill:#eca2c7;}.cls-5{fill:#fff5d3;}.cls-6,.cls-3{fill:#fff;}.cls-2{fill:#f5b2b4;}.cls-2,.cls-3{stroke:#1d1d1b;}.cls-3{stroke-width:3px;}</style></defs><circle class="cls-5" cx="81.97" cy="80.96" r="47.84"/><path class="cls-3" d="M111.68,53.03c.26-.82,1.64,3.51,1.92,5.39,1.11,7.42,1.03,14.78-1.57,21.94-.37,1.01-.33,1.82.25,2.77,3.9,6.34,2.56,13.49-1.66,18.95-3.93,5.08-9.23,7.96-15.35,9.47-10.16,2.52-20.2,2.15-30-1.64-5.47-2.12-9.91-5.6-12.69-10.85-2.83-5.35-2.98-10.75.3-16.02.54-.87.61-1.69.24-2.62-2.24-5.69-2.63-11.62-2.09-17.63.21-2.21.59-4.42,1.04-6.61.15-.71.45-1.39.79-2.16.26-.59,1.03-.76,1.51-.32,1.45,1.31,2.84,2.49,3.99,3.86,2.48,2.95,4.89,6,7.07,9.18,1.53,2.23,3.07,3.27,5.87,2.57,3.51-.88,7.1-1.47,10.72-1.33,4.22.16,8.45.75,12.62,1.5,1.88.34,3.16-.16,4.22-1.63,1.76-2.44,3.49-4.89,5.32-7.27,2.16-2.82,4.52-5.45,7.5-7.53h0ZM63.53,85.19c-.08,2.4,1.77,4.47,4.07,4.56,2.72.1,4.82-1.75,4.88-4.29.06-2.48-1.9-4.62-4.33-4.72-2.52-.1-4.54,1.85-4.62,4.45ZM92.72,85.29c-.01,2.58,1.8,4.46,4.31,4.47,2.53.01,4.53-1.88,4.55-4.29.02-2.7-1.82-4.7-4.33-4.73-2.51-.03-4.52,1.99-4.53,4.55h0Z"/><ellipse class="cls-6" cx="83.06" cy="88.03" rx="25.37" ry="11.99"/><circle class="cls-4" cx="101.27" cy="96.34" r="3.41"/><circle class="cls-4" cx="63.77" cy="96.34" r="3.41"/><path class="cls-1" d="M65.1,83.11s.31-3.74,6.23-3.11"/><path class="cls-2" d="M76.82,86.22c.04,4.4.07,9.86.11,14.27,0,0,.16,5.43,5.38,5.43.05.05,5.38-.32,5.32-4.85-.05-4.53-.23-14.63-.23-14.63-.63-.11-1.59-.33-2.71-.79-1.46-.6-1.79-1.03-2.67-1.01-.97.03-1.23.57-2.63,1.08-1.03.38-1.95.47-2.58.49Z"/><path class="cls-1" d="M99.5,83.11s-.31-3.74-6.23-3.11"/><path class="cls-1" d="M82.22,83.07c.88,1.95,2.84,3.08,4.75,2.82,2.19-.3,3.24-2.27,3.34-2.46"/><path class="cls-1" d="M73.87,83.07c.88,1.95,2.84,3.08,4.75,2.82,2.19-.3,3.24-2.27,3.34-2.46"/><path d="M68,71.14s-7.18,12.55-14.89,9.26c-1.64-5.69-1.05-24.24-1.05-24.24l2.3-2.48,13.63,17.45Z"/><path class="cls-6" d="M6.15,29.48c-.35,0-.73-.18-.94-.46-.22-.29-.35-.71-.48-1.08-.54-1.62-3.27-11.5-3.7-13.22-.2-.8-.87-2.48-.2-3.06.3-.27.75-.42,1.15-.51.38-.08.81-.18,1.17-.04.19.08.35.24.43.42.15.35.23.74.31,1.13.38-.6.85-1.18,1.48-1.6.53-.35,1.12-.65,1.75-.83.81-.23,1.75-.3,2.57-.12.6.13,1.18.41,1.64.77.47.37.89.86,1.24,1.34.82,1.16,1.22,2.58,1.31,3.98.09,1.26-.16,2.62-.78,3.75-.61,1.11-1.9,2.04-3.19,2.3-1.24.24-2.65-.04-3.74-.67.24.76,1.74,5.17,1.95,5.94.11.39.17.89-.07,1.21-.31.42-1.42.74-1.92.75ZM11.73,20.12c.79-.87,1.12-2.2,1.11-3.35,0-1.52-.48-3.18-1.49-4.39-.39-.44-.85-.89-1.44-1.13-.63-.25-1.44-.27-2.14-.14-.98.18-1.93.77-2.56,1.51-.41.5-.88,1.21-.91,1.65-.1,1.29.62,4.13,1.31,5.42.26.48,1.01,1.02,1.67,1.3.74.32,1.62.43,2.42.28.75-.14,1.52-.58,2.04-1.15Z"/><path class="cls-6" d="M19.4,26.03c-.34-.01-.72-.22-.92-.5-.21-.3-.32-.73-.42-1.11-.46-1.64-2.7-11.65-3.03-13.38-.16-.81-.74-2.52-.05-3.07.43-.36,1.1-.45,1.67-.51.3-.04.69.03.87.21.21.21.28.5.34.77.16.73.96,5.27,1.1,6,.47,2.48,1.19,4.91,1.87,7.34.14.51.77,2.59.7,3.12-.02.16-.08.35-.18.48-.33.41-1.45.67-1.95.65Z"/><path class="cls-6" d="M33.01,22.96c-.22-.06-.43-.2-.57-.38-.27-.31-.36-.7-.46-1.08-.34-1.33-.61-2.71-.8-4.07-.26,1.35-.53,2.73-1.07,3.99-.38.88-.95,1.79-1.77,2.33-1.32.92-3.31.47-4.36-.71-1.2-1.35-1.78-3.3-1.77-5.09,0-1.35.4-2.8,1.21-3.94.5-.74,1.1-1.47,1.89-1.92.83-.48,1.92-.69,2.83-.58.84.1,1.65.45,2.36.88-.02-.25-.23-1.39-.19-1.64.04-.21.17-.44.36-.57.44-.31,1.56-.56,2.05-.39.52.18.82.8.94,1.33.23,1.02.31,2.09.43,3.12.22,1.95.62,3.95.98,5.87.08.44.16.9.18,1.34,0,.3-.05.64-.21.9-.35.57-1.36.77-2.02.61ZM27.35,22.62c.51-.1.94-.49,1.26-.89.45-.55.75-1.19.94-1.86.55-1.99.92-4.07,1.09-6.13-.76-.6-1.8-1.13-2.81-1-.45.06-.94.26-1.31.56-1.99,1.59-2.03,5.64-1.06,7.86.19.42.44.85.83,1.16.26.23.71.36,1.07.29Z"/><path class="cls-6" d="M38.21,22.12c-.22-.07-.43-.21-.56-.39-.26-.31-.35-.7-.44-1.09-.55-2.42-.82-4.9-1.07-7.32-.05-.5-.45-2.91-.4-3.43.02-.21.17-.46.37-.59.45-.3,1.57-.53,2.05-.35.52.19.81.81.92,1.35.2.98.25,1.99.34,2.98.23-.95.52-1.93,1.02-2.78.47-.8,1.14-1.55,1.96-2.07.6-.38,1.34-.65,2.04-.65.65,0,1.3.16,1.83.5.79.46,1.4,1.24,1.74,2.08.37.88.47,1.89.61,2.85.26,1.84.47,3.72.43,5.61.02.38-.01.76-.1,1.14-.22.96-1.43,1.26-2.34.82-.25-.12-.46-.29-.59-.5-.24-.45-.28-1.01-.33-1.49-.07-.72-.04-1.48-.08-2.23-.09-1.5-.17-3.01-.43-4.48-.09-.54-.24-1.09-.45-1.58-.13-.3-.34-.64-.6-.85-.24-.2-.62-.35-.94-.3-.43.06-.83.32-1.11.61-.59.64-.99,1.45-1.25,2.25-.53,1.69-.8,3.48-.88,5.24,0,.02,0,0,0,.05.19,1.06.45,2.11.48,3.19,0,.31-.06.64-.23.9-.36.56-1.37.74-2.03.57Z"/><path class="cls-6" d="M56.47,25.05c-1.06-.18-2.04-.63-2.88-1.29-.23-.2-.91-.81-.96-1.1-.09-.53.61-.76.94-.35.39.48.87.99,1.46,1.21.85.37,1.96,0,2.51-.77.4-.56.52-1.33.57-2.01.1-1.58-.23-3.17-.39-4.73-.22-2.18-.45-4.39-.65-6.57-.01-.15-.05-.3-.04-.45.05-.36.43-.66.77-.79.57-.24,1.22-.25,1.83,0,.33.12.68.42.71.77.06.82.07,1.65.14,2.5.22,2.94.87,5.91.68,8.85-.07,1.06-.34,2.2-.94,3.06-.57.82-1.64,1.44-2.63,1.66-.34.07-.73.07-1.09.03ZM56.44,3.76c.48-1.29,2.32-1.57,3.21-.52.78.93.22,2.33-1.02,2.64-1.37.35-2.66-.86-2.2-2.12Z"/><path class="cls-6" d="M65.8,18.89c-1.24-.59-2.28-1.73-2.81-2.98-.65-1.53-.75-3.36-.23-4.97.73-2.28,3.12-4.13,5.74-4.41.77-.08,1.59-.02,2.32.23,3.08,1.03,4,4.56,2.03,6.95-.68.85-1.86,1.37-2.98,1.51-1.14.15-2.34.16-3.48-.05.26.94.86,1.83,1.64,2.44.51.4,1.18.66,1.84.69.69.03,1.44-.21,2.04-.56.18-.11.38-.19.56-.17.42.09.42.56.13.82-.25.22-1.39.7-1.72.79-1.63.42-3.57.42-5.09-.3ZM69.75,14.33c.75-.14,1.5-.41,2.04-.93,1.35-1.22.96-3.59-.16-5-.45-.53-1.17-1.05-1.92-1.07-.64-.02-1.31.38-1.76.83-.48.48-.88,1.07-1.17,1.69-.65,1.34-.82,2.9-.63,4.34,1.17.31,2.44.36,3.6.14Z"/><path class="cls-6" d="M83.34,18.81c-.33-.09-.66-.41-.77-.7-.14-.36-.14-.81-.15-1.17-.07-1.73.08-11.98.15-13.72.03-.82-.13-2.63.66-3.02.5-.25,1.17-.2,1.73-.11.3.05.65.21.79.43.14.22.16.53.15.8-.01.8-.32,5.72-.33,6.52.71-.87,1.8-1.64,2.96-1.87.8-.16,1.71-.16,2.48.09.64.21,1.22.64,1.66,1.13.65.67,1.17,1.48,1.43,2.33.29.96.37,1.99.38,2.99.01,1.5-.35,3.11-1.18,4.38-.39.59-.91,1.14-1.5,1.47-.71.39-1.6.54-2.39.48-1.27-.1-2.54-.58-3.64-1.22-.03.37-.12.81-.4,1.02-.4.3-1.56.32-2.03.18ZM90.89,17.67c.52-.18.95-.54,1.28-.96.49-.63.8-1.38.99-2.11.29-1.1.31-2.33.19-3.47-.08-.79-.28-1.64-.71-2.33-.43-.69-1-1.36-1.76-1.71-.74-.34-1.69-.31-2.47-.04-.56.19-1.11.5-1.55.92-.54.52-1.17,1.24-1.3,1.76-.43,1.62-.37,5.7.2,6.7.31.53,2.07,1.15,3.19,1.34.64.11,1.34.11,1.94-.1Z"/><path class="cls-6" d="M98.43,18.89c-1.17-.73-2.06-1.99-2.44-3.29-.47-1.6-.35-3.43.35-4.96,1-2.18,3.59-3.73,6.22-3.7.78,0,1.58.17,2.28.5,2.94,1.39,3.43,5,1.19,7.15-.78.76-2.01,1.14-3.14,1.15-1.15.01-2.35-.12-3.45-.46.15.96.64,1.92,1.34,2.62.46.46,1.1.79,1.75.9.68.11,1.45-.04,2.1-.31.19-.09.4-.14.58-.1.4.13.35.61.03.83-.27.19-1.47.53-1.81.58-1.67.22-3.6,0-5.02-.9ZM102.9,14.83c.76-.05,1.54-.23,2.13-.69,1.48-1.06,1.38-3.45.43-4.98-.38-.58-1.04-1.18-1.78-1.29-.64-.09-1.35.23-1.85.62-.54.42-1,.96-1.36,1.54-.8,1.25-1.16,2.78-1.14,4.24,1.13.45,2.38.65,3.56.57Z"/><path class="cls-6" d="M108.6,19.81c-.23-.05-.48-.12-.65-.26-.24-.22-.32-.51-.16-.79.87-1.85,2.11-3.53,3.42-5.11,1.43-1.73,3-3.4,4.75-4.88-1.85-.42-3.77-.68-5.69-.69-.27,0-.52.07-.78,0-.57-.16-.43-.87.2-.91,1.8-.1,3.63.09,5.41.42.72.13,3.27.65,3.83,1.1.12.09.24.26.27.41.08.67-1.2,1.74-1.69,2.2-2.53,2.38-5.18,4.85-6.6,7.95.67.07,4.84.48,5.53.59.71.11.6,1-.14.91-2.55-.31-5.16-.43-7.71-.93Z"/><path class="cls-6" d="M120.68,20.77c-.74-.67-1.18-1.68-1.39-2.66-.45-2.15,0-4.59,1.24-6.44.67-.99,1.65-1.92,2.85-2.35,1.32-.48,3.04-.25,4.19.59.54.39.97.94,1.28,1.5.58,1.08.85,2.35.84,3.54-.02,1.52-.45,3.04-1.22,4.36-.49.83-1.14,1.61-1.99,2.13-.55.34-1.19.57-1.85.62-1.38.11-2.97-.37-3.96-1.27ZM125.42,20.8c.55-.19,1.04-.57,1.45-.98.7-.72,1.17-1.69,1.44-2.62.34-1.14.43-2.39.24-3.56-.22-1.38-1.16-3.23-2.65-3.28-1.43-.05-2.71,1.88-3.17,3.11-.59,1.6-.81,3.39-.5,5.05.13.57.39,1.14.79,1.61.27.32.69.58,1.07.69.42.13.9.12,1.32-.02Z"/><path class="cls-6" d="M132.7,23.09c-1.07-.87-1.81-2.24-2.02-3.57-.27-1.65.08-3.44.97-4.88,1.26-2.04,4.04-3.25,6.66-2.89.78.11,1.55.36,2.21.78,2.75,1.75,2.8,5.4.3,7.24-.87.66-2.15.88-3.27.75-1.15-.13-2.32-.41-3.38-.89.03.97.39,1.98,1.01,2.77.4.51.99.92,1.63,1.11.66.2,1.45.14,2.13-.05.2-.06.42-.09.59-.03.39.18.28.65-.07.83-.3.16-1.53.34-1.87.35-1.69,0-3.58-.46-4.89-1.52ZM137.65,19.63c.76.05,1.57-.04,2.21-.41,1.61-.86,1.81-3.25,1.05-4.89-.31-.63-.89-1.31-1.61-1.51-.62-.17-1.37.05-1.92.38-.59.35-1.12.83-1.55,1.35-.95,1.14-1.5,2.61-1.67,4.06,1.07.58,2.29.94,3.47,1.01Z"/><path class="cls-6" d="M143.53,25.8c-.3-.16-.56-.52-.6-.86-.05-.38.04-.8.11-1.18.31-1.7,2.7-11.67,3.15-13.36.21-.79.44-2.59,1.31-2.8.54-.11,1.2.08,1.73.27.28.1.6.34.68.6.09.27.04.58-.03.84-.76,3.08-1.8,6.15-2.43,9.29,2.67-1.22,5.45-2.22,8.13-3.45.67-.31,1.16.62.48.93-2.01.91-4.07,1.7-6.12,2.53-.74.31-1.48.64-2.21.96.43,1.52.88,3.12,1.81,4.38.52.72,1.28,1.25,2.03,1.68.43.22.9.39,1.38.41.02,0,.16,0,.19,0,.47.05.64.64.24.92-.29.21-1.16,0-1.53-.12-1.6-.54-3.04-1.86-3.79-3.33-.44-.85-.76-1.75-1.04-2.67-.1.54-.68,3.66-.81,4.18-.1.41-.29.88-.65,1.05-.47.22-1.6-.03-2.04-.27Z"/><path class="cls-6" d="M156.35,28.96c-1.23-.69-1.43-2.37-.22-3.1.23-.14.5-.3.76-.39.33-.11.75-.13,1.11-.05.66.15,1.4.69,1.56,1.33.14.56-.09,1.15-.42,1.62-.57.85-1.86,1.1-2.79.58ZM157.3,23.39c-.15-.51.05-1.08.15-1.62.37-2.23.83-4.46,1.3-6.64.18-.85.65-3.31,1.39-3.79.72-.47,2.12-.15,2.82.4,1.04.83.06,2.9-.38,4.02-.25.64-1.67,4.62-1.89,5.28-.16.47-.78,2.4-1.1,2.78-.2.23-.48.41-.76.46-.62.06-1.34-.31-1.51-.89Z"/></svg>